<?xml version="1.0" encoding="utf-8"?>
<!-- Generator: Adobe Illustrator 16.0.0, SVG Export Plug-In . SVG Version: 6.00 Build 0)  -->
<!DOCTYPE svg PUBLIC "-//W3C//DTD SVG 1.1//EN" "http://www.w3.org/Graphics/SVG/1.1/DTD/svg11.dtd">
<svg version="1.1" id="Layer_1" xmlns="http://www.w3.org/2000/svg" xmlns:xlink="http://www.w3.org/1999/xlink" x="0px" y="0px"
	 width="274px" height="274px" viewBox="0 0 274 274" enable-background="new 0 0 274 274" xml:space="preserve">
<polyline fill="#204264" stroke="#204264" stroke-miterlimit="10" points="65.27,65.358 61.162,60.121 66.941,55.591 71.046,60.828 
	"/>
<g>
	
		<rect x="45.74" y="45.968" transform="matrix(-0.7869 0.617 -0.617 -0.7869 138.5645 57.2745)" fill="#204264" width="27.309" height="13.184"/>
	<g>
		<path fill="#204264" d="M53.631,67.087c7.164-5.617,14.329-11.234,21.491-16.851c0.602-0.472,0.393-1.331,0-1.83
			c-2.711-3.459-5.424-6.917-8.135-10.376c-0.471-0.601-1.33-0.392-1.829,0c-7.165,5.617-14.328,11.234-21.492,16.852
			c-0.602,0.471-0.393,1.33,0,1.829c2.711,3.459,5.422,6.917,8.134,10.376c1.029,1.312,2.846-0.532,1.829-1.829
			c-2.711-3.459-5.423-6.917-8.134-10.376c0,0.609,0,1.219,0,1.829c7.164-5.617,14.328-11.233,21.492-16.851c-0.61,0-1.22,0-1.829,0
			c2.711,3.459,5.424,6.918,8.135,10.376c0-0.61,0-1.22,0-1.83c-7.164,5.616-14.328,11.234-21.491,16.852
			C50.489,66.288,52.333,68.104,53.631,67.087z"/>
	</g>
</g>
<polyline fill="#204264" stroke="#204264" stroke-miterlimit="10" points="128.361,38.938 128.361,26.432 148.198,26.432 
	148.198,38.938 "/>
<path fill="none" stroke="#E25142" stroke-width="40" stroke-miterlimit="10" d="M237.388,153.26
	c-1.805-54.901-45.628-98.932-99.684-99.636"/>
<path fill="none" stroke="#E06558" stroke-width="40" stroke-miterlimit="10" d="M138.982,252.934
	c54.464-0.684,98.405-45.049,98.405-99.674c0-0.531-0.005-1.061-0.012-1.588"/>
<path fill="none" stroke="#CC2F1F" stroke-width="40" stroke-miterlimit="10" d="M38.086,149.607c-0.02,0.799-0.029,1.6-0.029,2.4
	c0,55.375,45.664,100.328,102.217,100.896"/>
<path fill="#FFFFFF" stroke="#F44336" stroke-width="17" stroke-miterlimit="10" d="M36.649,148.861
	c-0.016,0.428-0.028,0.859-0.037,1.287"/>
<path fill="none" stroke="#CC4C37" stroke-width="40" stroke-miterlimit="10" d="M138.896,53.618
	c-54.7,1.238-98.895,44.07-100.859,97.444"/>
<circle fill="#204264" stroke="#204264" stroke-width="17" stroke-miterlimit="10" cx="140.221" cy="153.682" r="15.236"/>
<polyline fill="#204264" stroke="#204264" stroke-width="4" stroke-miterlimit="10" points="127.834,140.703 127.002,150.555 
	102.539,97.112 140.597,140.854 "/>
<path fill="#FFFFFF" stroke="#E06558" stroke-width="30" stroke-miterlimit="10" d="M131.489,113.305"/>
<g>
	<rect x="112.404" y="1.85" fill="#204264" width="50.888" height="24.151"/>
	<g>
		<path fill="#204264" d="M112.404,27.606c17.106,0,34.213,0,51.321,0c0.703,0,1.293-0.588,1.293-1.294c0-8.258,0-16.518,0-24.776
			c0-0.705-0.59-1.293-1.293-1.293c-17.107,0-34.214,0-51.321,0c-0.705,0-1.293,0.588-1.293,1.293c0,8.259,0,16.518,0,24.776
			c0,1.669,2.587,1.669,2.587,0c0-8.258,0-16.518,0-24.776c-0.431,0.431-0.862,0.863-1.294,1.294c17.106,0,34.213,0,51.321,0
			c-0.433-0.431-0.862-0.863-1.294-1.294c0,8.259,0,16.518,0,24.776c0.432-0.431,0.861-0.862,1.294-1.293
			c-17.107,0-34.214,0-51.321,0C110.734,25.019,110.734,27.606,112.404,27.606z"/>
	</g>
</g>
</svg>
