<?xml version="1.0" standalone="no"?>
<!DOCTYPE svg PUBLIC "-//W3C//DTD SVG 20010904//EN"
 "http://www.w3.org/TR/2001/REC-SVG-20010904/DTD/svg10.dtd">
<svg version="1.0" xmlns="http://www.w3.org/2000/svg"
 width="700.000000pt" height="700.000000pt" viewBox="0 0 700.000000 700.000000"
 preserveAspectRatio="xMidYMid meet">
<metadata>
Created by potrace 1.11, written by Peter Selinger 2001-2013
</metadata>
<g transform="translate(0.000000,700.000000) scale(0.100000,-0.100000)"
fill="#000000" stroke="none">
<path d="M2859 6988 c-22 -8 -20 20 -20 -408 0 -221 2 -266 15 -275 9 -7 82
-11 203 -10 103 1 193 0 199 -2 7 -3 10 -35 10 -86 -1 -65 -4 -82 -16 -84
-128 -18 -305 -50 -403 -74 -357 -87 -739 -256 -1025 -455 -57 -40 -82 -47
-82 -25 0 5 38 37 84 72 46 35 89 72 96 83 14 22 15 19 -124 196 -49 63 -91
117 -92 118 -5 7 -70 -29 -101 -56 -17 -15 -55 -46 -85 -69 -29 -23 -121 -95
-204 -160 -83 -65 -163 -127 -177 -138 -15 -11 -27 -29 -27 -40 1 -30 221
-303 240 -297 8 3 61 40 117 84 65 50 104 74 109 67 4 -7 -19 -34 -57 -67
-161 -140 -386 -391 -510 -567 -220 -314 -400 -726 -478 -1095 -51 -240 -65
-371 -65 -590 0 -154 7 -302 19 -377 3 -18 7 -45 9 -60 25 -168 68 -348 125
-518 191 -576 561 -1094 1051 -1471 192 -148 580 -370 734 -420 28 -9 56 -20
61 -24 28 -21 415 -134 500 -146 17 -3 50 -9 75 -14 53 -10 97 -17 165 -26 28
-3 64 -8 80 -11 59 -8 451 -11 525 -3 111 12 169 21 240 35 14 2 36 7 50 9
480 83 1041 355 1414 685 61 53 286 279 331 331 72 85 207 271 277 383 214
345 373 786 424 1182 3 22 7 51 10 65 6 41 17 239 18 325 2 718 -312 1521
-805 2060 -123 133 -313 314 -358 339 -9 5 -18 12 -21 15 -12 15 -100 82 -175
133 -297 202 -626 353 -965 441 -83 22 -115 29 -190 43 -47 9 -142 24 -185 30
-27 3 -54 7 -60 8 -12 1 -22 99 -15 141 l6 30 196 0 c108 0 200 4 205 8 4 5 8
157 8 339 0 266 -2 332 -13 341 -16 12 -1309 17 -1343 5z m866 -1882 c23 -4
50 -8 60 -10 11 -2 40 -7 65 -11 290 -45 647 -208 903 -413 92 -72 249 -228
317 -312 28 -36 59 -74 67 -84 8 -10 39 -56 68 -101 156 -242 262 -508 316
-795 27 -146 34 -432 14 -565 -26 -177 -35 -214 -85 -366 -97 -297 -256 -558
-472 -779 -104 -106 -141 -139 -248 -217 -47 -35 -89 -66 -95 -71 -5 -4 -41
-26 -80 -48 -249 -147 -473 -222 -809 -273 -66 -10 -310 -8 -396 4 -317 40
-616 145 -878 307 -430 267 -751 676 -898 1148 -24 78 -52 199 -60 260 -3 19
-7 41 -10 48 -7 24 -17 174 -18 267 0 87 12 254 19 265 2 3 6 26 10 50 31 214
165 547 303 755 155 231 347 426 571 579 l54 36 114 -247 c138 -301 109 -237
301 -658 88 -192 172 -376 187 -409 l28 -59 -31 -66 c-59 -125 -74 -214 -59
-341 32 -277 261 -501 536 -526 36 -4 68 -7 71 -7 21 -3 136 18 185 34 91 31
163 77 236 149 71 72 116 145 150 248 34 102 32 259 -5 367 -15 44 -34 87 -42
96 -8 8 -14 20 -14 25 0 15 -48 73 -108 131 -59 56 -146 107 -232 136 -54 18
-224 28 -296 17 -34 -5 -32 -7 -269 265 -33 38 -78 90 -100 115 -22 25 -62 72
-90 105 -27 32 -59 68 -70 79 -11 12 -90 102 -175 201 -85 99 -157 182 -160
185 -20 18 -140 162 -140 168 0 5 15 16 33 25 17 9 64 34 104 56 129 70 370
163 482 186 9 2 39 8 66 15 28 6 68 13 90 16 22 3 46 7 54 10 8 3 44 7 80 10
36 4 67 7 68 8 6 5 250 -2 288 -8z"/>
</g>
</svg>
