<?xml version="1.0" encoding="utf-8"?>
<!-- Generator: Adobe Illustrator 16.0.0, SVG Export Plug-In . SVG Version: 6.00 Build 0)  -->
<!DOCTYPE svg PUBLIC "-//W3C//DTD SVG 1.1//EN" "http://www.w3.org/Graphics/SVG/1.1/DTD/svg11.dtd">
<svg version="1.1" id="Layer_1" xmlns="http://www.w3.org/2000/svg" xmlns:xlink="http://www.w3.org/1999/xlink" x="0px" y="0px"
	 width="274px" height="319.333px" viewBox="0 0 274 319.333" enable-background="new 0 0 274 319.333" xml:space="preserve">
<polyline fill="#204264" stroke="#204264" stroke-miterlimit="10" points="53.354,80.964 48.592,74.892 55.291,69.64 60.051,75.711 
	"/>
<g>
	
		<rect x="30.715" y="58.483" transform="matrix(0.7869 -0.617 0.617 0.7869 -30.8848 42.8096)" fill="#204264" width="31.662" height="15.286"/>
	<g>
		<path fill="#204264" d="M39.86,82.969c8.306-6.512,16.612-13.025,24.917-19.538c0.697-0.546,0.455-1.542,0-2.121
			c-3.144-4.01-6.288-8.02-9.432-12.029c-0.546-0.697-1.542-0.455-2.121,0c-8.306,6.512-16.611,13.024-24.917,19.537
			c-0.697,0.546-0.455,1.542,0,2.121c3.144,4.01,6.287,8.02,9.431,12.03c1.193,1.521,3.3-0.617,2.121-2.121
			c-3.144-4.01-6.287-8.02-9.431-12.03c0,0.707,0,1.414,0,2.121c8.306-6.512,16.611-13.024,24.917-19.537c-0.707,0-1.414,0-2.121,0
			c3.144,4.01,6.288,8.02,9.432,12.029c0-0.707,0-1.414,0-2.121c-8.306,6.512-16.612,13.025-24.917,19.538
			C36.217,82.041,38.356,84.148,39.86,82.969z"/>
	</g>
</g>
<polyline fill="#204264" stroke="#204264" stroke-miterlimit="10" points="126.5,50.333 126.5,35.833 149.5,35.833 149.5,50.333 "/>
<path fill="none" stroke="#E25142" stroke-width="40" stroke-miterlimit="10" d="M252.904,182.874
	c-2.092-63.65-52.9-114.699-115.571-115.515"/>
<path fill="none" stroke="#E06558" stroke-width="40" stroke-miterlimit="10" d="M138.814,298.436
	c63.146-0.794,114.09-52.229,114.09-115.562c0-0.615-0.006-1.229-0.014-1.842"/>
<path fill="none" stroke="#CC2F1F" stroke-width="40" stroke-miterlimit="10" d="M21.838,178.64
	c-0.023,0.927-0.034,1.854-0.034,2.784c0,64.199,52.941,116.318,118.508,116.978"/>
<path fill="#FFFFFF" stroke="#F44336" stroke-width="17" stroke-miterlimit="10" d="M20.172,177.776
	c-0.018,0.496-0.032,0.994-0.043,1.492"/>
<path fill="none" stroke="#CC4C37" stroke-width="40" stroke-miterlimit="10" d="M138.715,67.353
	C75.296,68.787,24.057,118.447,21.78,180.327"/>
<circle fill="#204264" stroke="#204264" stroke-width="17" stroke-miterlimit="10" cx="140.251" cy="183.365" r="17.665"/>
<polyline fill="#204264" stroke="#204264" stroke-width="4" stroke-miterlimit="10" points="125.889,168.317 124.926,179.741 
	96.563,117.779 140.686,168.491 "/>
<path fill="#FFFFFF" stroke="#E06558" stroke-width="30" stroke-miterlimit="10" d="M130.127,136.552"/>
<g>
	<rect x="108" y="7.333" fill="#204264" width="59" height="28"/>
	<g>
		<path fill="#204264" d="M108,37.195c19.833,0,39.667,0,59.5,0c0.816,0,1.5-0.682,1.5-1.5c0-9.575,0-19.15,0-28.725
			c0-0.818-0.684-1.5-1.5-1.5c-19.833,0-39.667,0-59.5,0c-0.818,0-1.5,0.682-1.5,1.5c0,9.575,0,19.15,0,28.725c0,1.935,3,1.935,3,0
			c0-9.575,0-19.15,0-28.725c-0.5,0.5-1,1-1.5,1.5c19.833,0,39.667,0,59.5,0c-0.5-0.5-1-1-1.5-1.5c0,9.575,0,19.15,0,28.725
			c0.5-0.5,1-1,1.5-1.5c-19.833,0-39.667,0-59.5,0C106.065,34.195,106.065,37.195,108,37.195z"/>
	</g>
</g>
</svg>
